<svg width="112" height="112" viewBox="0 0 112 112" fill="none" xmlns="http://www.w3.org/2000/svg">
<path d="M93.3369 0H18.6631C8.35574 0 0 8.35574 0 18.6631V93.3369C0 103.644 8.35574 112 18.6631 112H93.3369C103.644 112 112 103.644 112 93.3369V18.6631C112 8.35574 103.644 0 93.3369 0Z" fill="url(#paint0_linear_3_1185)"/>
<path d="M46.2107 77.8507H46.06C45.2065 77.8205 44.3687 77.6134 43.5994 77.2427C42.8301 76.8719 42.1461 76.3456 41.5907 75.6968L31.5538 64.3245C30.4105 63.0056 29.8094 61.3025 29.8713 59.5581C29.9332 57.8137 30.6537 56.1575 31.8877 54.923C32.4804 54.3329 33.1884 53.8713 33.9675 53.5671C34.7466 53.2629 35.5801 53.1226 36.4158 53.155C37.2516 53.1873 38.0717 53.3916 38.825 53.7551C39.5782 54.1186 40.2485 54.6335 40.7938 55.2676L46.4477 61.7291L71.4215 36.0338C72.0001 35.4277 72.6974 34.9475 73.4698 34.6231C74.2423 34.2986 75.0734 34.1369 75.9112 34.148C76.7489 34.1591 77.5754 34.3428 78.339 34.6877C79.1026 35.0325 79.7869 35.5311 80.3492 36.1522C81.5169 37.4484 82.1532 39.1371 82.1313 40.8816C82.1093 42.626 81.4307 44.2981 80.2307 45.5645L50.6154 75.9661C50.0446 76.559 49.3607 77.0313 48.6041 77.355C47.8475 77.6787 47.0337 77.8473 46.2107 77.8507V77.8507Z" fill="#0C3B79"/>
<defs>
<linearGradient id="paint0_linear_3_1185" x1="0" y1="56" x2="112" y2="56" gradientUnits="userSpaceOnUse">
<stop stop-color="#67A3FF"/>
<stop offset="1" stop-color="#418CFF"/>
</linearGradient>
</defs>
</svg>
